<?xml version="1.0" encoding="UTF-8" standalone="no"?>
<!-- Created with Inkscape (http://www.inkscape.org/) -->

<svg
   width="210mm"
   height="297mm"
   viewBox="0 0 210 297"
   version="1.1"
   id="svg1"
   xml:space="preserve"
   xmlns="http://www.w3.org/2000/svg"
   xmlns:svg="http://www.w3.org/2000/svg"><defs
     id="defs1" /><g
     id="layer1"><path
       class="st128"
       d="m 1010.6,337.1 c 0.7,-0.8 1.2,-1.5 1.2,-1.5 -82.5,0 -199.7,-45.4 -199.7,-45.4 0,0 -30.3,-18.4 -53.5,4.3 -16.9,16.7 -29.6,29.2 -36.3,35.8 V 301 c 12.1,-2.5 21.2,-12.8 21.2,-25.5 0,-14.7 -11.8,-26.6 -26.6,-26.6 -14.7,0 -26.6,11.9 -26.6,26.6 0,12.8 9.3,23 21.3,25.5 v 29.5 c -6.7,-6.5 -19.4,-19.1 -36.5,-35.9 -22.9,-22.7 -53.4,-4.3 -53.4,-4.3 0,0 -117.3,45.4 -199.7,45.4 0,0 0.4,0.7 1.3,1.5 25,1.6 79.4,2.5 133.7,-13.4 0,0 -51.4,24.8 -132.7,14.6 7.9,8.1 40.5,32.2 127.2,3.3 17.8,-5.9 17.8,-5.9 6,0 0,0 -34.9,20.7 -93.8,26.6 0,0 1.7,4.4 8.2,8.7 16,-0.6 65.9,-4.5 114.2,-29.3 0,0 -42.8,32.5 -113.6,29.6 14.2,8.7 49.6,15.8 136,-19.9 0,0 10.9,-3 3.3,1.5 -7.7,4.4 -62.5,27.9 -105.5,31.1 0,0 5.1,4.4 16.2,7.5 23.2,-4 68.7,-13.7 111.2,-34.5 0,0 -38.5,26.4 -109.2,35 20.6,5 59.9,5.8 125.3,-26 0,0 8.2,-1.7 1.9,1.5 -6.1,3.3 -47.9,26.2 -84,29.7 -2.8,0.4 9.3,4.4 28.3,4.6 16.1,-3.8 44.6,-12.6 70.9,-31.1 0,0 -22.3,22.6 -64.4,30.9 21.7,-0.8 50.5,-7 76.9,-28.2 0,0 21.4,14.2 32.3,19.1 v 85.9 c -8.8,-3.9 -17.5,-7.5 -25.5,-11.7 -6.7,-3.4 -13.1,-7.5 -17.1,-11.4 -2,-2 -6,-10.4 -0.9,-15 4.4,-1.9 11.9,-0.8 16.5,0.8 l 0.1,-0.3 c 9.2,1.4 17.3,-2.8 19.1,-13.1 1.6,-10.4 -2.4,-17.5 -11.3,-19.2 v -0.3 c -10.8,-2 -20.3,-2.5 -32.7,1.9 -6,2.3 -12.4,6.9 -16.4,13.3 -4.1,6.4 -5.5,13.5 -5.9,19.3 -0.1,3 0,5.8 0.1,8.5 0.2,2.6 1.4,8 2.9,10.7 3,6.7 7.3,11.1 11.4,14.5 8.3,6.6 16.4,10.1 24.4,13.4 5,2.1 9.9,3.6 14.8,5.4 -3.6,3.1 -8,6.8 -10.6,13.9 -2.8,7.6 0.3,16 3.6,20.2 2.7,3.5 5,6.6 7.9,10.1 4.7,5.8 10,11.1 15.2,16.1 -3,3.8 -5.9,7.9 -8.4,13 -4.2,8.7 -4.8,21 1.9,29.4 3.2,4.2 6.7,7.8 10.3,10.9 -0.3,0.3 -0.6,0.6 -0.9,1 -5.7,5.8 -12,11.4 -16.7,19 -2.2,3.8 -4.2,8.5 -3.5,13.7 0.7,5 4.3,9.1 7,11.7 4.5,4.8 9.7,9 14.7,13.2 v 11 c -1.9,2.5 -3.2,5.2 -3.6,8.1 0.7,-2.6 2.3,-5.3 3.6,-7.9 v 11.5 h 10.6 V 684 c 2.5,3.8 4.1,8.3 3.1,13.4 0.8,-4.1 0.6,-8.6 -1.1,-12.4 -0.5,-1.2 -1.3,-2.1 -2,-3.2 v -7.3 c 5.5,-4.8 11.2,-9.5 16.3,-15 2.6,-2.5 6.2,-6.5 6.8,-11.7 0.6,-5.2 -1.4,-9.9 -3.7,-13.7 -4.9,-7.5 -11.2,-13 -17,-18.8 -0.2,-0.1 -0.3,-0.3 -0.5,-0.5 3.4,-3.1 6.7,-6.5 9.8,-10.6 6.6,-8.5 5.9,-20.7 1.4,-29.4 -2.6,-5.2 -5.7,-9.3 -8.9,-13.2 5.2,-5.3 10.6,-10.8 15.3,-16.8 2.9,-3.5 5.2,-6.5 7.8,-10.2 3.1,-4.1 6.3,-12.6 3.3,-20.2 -2.5,-6.8 -6.7,-10.2 -10.2,-13.2 4.8,-1.8 9.4,-3.3 14.2,-5.4 7.9,-3.4 16,-7.1 24.1,-13.8 4,-3.4 8.3,-8.1 11.3,-14.7 1.4,-2.8 2.5,-8.3 2.5,-10.7 0.3,-2.8 0.3,-5.5 0.2,-8.5 -0.3,-5.9 -2,-12.8 -6.1,-19.3 -4.2,-6.3 -10.8,-10.8 -16.7,-13 -12.4,-4.2 -21.8,-3.5 -32.7,-1.4 l 0.1,0.3 c -8.9,1.8 -12.8,9 -11.1,19.3 2,10.4 10.1,14.4 19.3,12.8 v 0.3 c 4.6,-1.6 12.1,-2.9 16.6,-1 5,4.5 1.4,13 -0.7,15 -3.9,4.2 -10.2,8 -16.8,11.5 -7.6,4.2 -15.9,7.9 -24.4,11.7 v -85.7 c 11,-5 32.2,-19.1 32.2,-19.1 26.4,21.2 55.1,27.3 76.8,28.2 -41.9,-8.3 -64.4,-30.9 -64.4,-30.9 26.4,18.6 54.8,27.3 70.9,31.1 19.1,-0.2 31.1,-4.2 28.3,-4.6 -36,-3.6 -77.9,-26.4 -84,-29.7 -6.2,-3.1 2,-1.5 2,-1.5 65.4,31.8 104.7,31 125.2,26 -70.6,-8.6 -109.1,-35 -109.1,-35 42.3,20.8 87.9,30.5 111.1,34.5 11.1,-3.1 16.2,-7.5 16.2,-7.5 -43,-3.2 -97.7,-26.7 -105.4,-31.1 -7.7,-4.4 3.2,-1.5 3.2,-1.5 86.2,35.7 121.7,28.6 135.8,19.9 -70.7,2.9 -113.4,-29.6 -113.4,-29.6 48.3,24.8 98,28.7 114,29.3 6.6,-4.2 8.3,-8.7 8.3,-8.7 -58.9,-5.9 -93.9,-26.6 -93.9,-26.6 -11.7,-5.9 -11.7,-5.9 5.9,0 86.8,28.9 119.3,4.8 127.4,-3.3 -81.4,10.2 -132.9,-14.6 -132.9,-14.6 54.5,15.8 108.8,14.8 133.9,13.2 z M 698.4,524.8 c -1.4,-2.6 -0.9,-3 -0.7,-3.2 0.6,-1.8 7.5,-6.4 13.9,-9.1 v 30.6 c -2.3,-2.7 -4.8,-5.5 -6.8,-8.5 -2.1,-2.9 -4.4,-6.6 -6.4,-9.8 z m 10.9,73 c -3.5,-5 -2.8,-12 0.5,-17.5 0.5,-0.9 1.3,-1.6 1.9,-2.4 v 22.9 c -0.7,-1 -1.7,-2 -2.4,-3 z m -9.2,59.2 c -6.2,-5.9 -6.3,-12.8 -1.5,-18.8 3.6,-4.8 8.3,-8.8 13.1,-13 v 44.2 c -3.9,-4 -8.1,-8 -11.6,-12.4 z m 36.5,-19.5 c 5.1,6.1 5,12.9 -1.1,18.8 -4,5.1 -8.7,9.8 -13.2,14.5 v -46.9 c 5.3,4.2 10.5,8.5 14.3,13.6 z M 725.5,598 c -0.8,1.5 -2.1,2.8 -3.2,4.2 v -24.6 c 0.7,1 1.7,1.9 2.3,2.9 3.4,5.5 4.3,12.4 0.9,17.5 z m 9.7,-73.9 c -1.9,3.3 -4.3,7 -6.3,10 -2,2.9 -4.4,5.6 -6.6,8.4 v -30.1 c 6.4,2.5 12.9,6.8 13.5,8.5 0.3,0.2 0.7,0.7 -0.6,3.2 z"
       style="fill:#394f56"
       id="path62"
       transform="matrix(0.23277519,0,0,0.23277519,-60.585535,63.820466)" /><path
       class="st128"
       d="m 707.9,696.4 c -0.3,-1.5 0.1,-2.8 0.3,-4.2 -0.4,1.4 -0.6,2.8 -0.3,4.2 z"
       style="fill:#394f56"
       id="path63"
       transform="matrix(0.23277519,0,0,0.23277519,-60.585535,63.820466)" /></g><g
     id="layer2"><circle
       style="fill:#394f56;fill-opacity:1;stroke:#ffffff;stroke-width:0"
       id="path1"
       cx="106.28661"
       cy="112.36761"
       r="21.303421" /><ellipse
       style="fill:#ffffff;fill-opacity:1;stroke:#ffffff;stroke-width:0"
       id="path3"
       cx="111.70927"
       cy="162.42744"
       rx="0.35699999"
       ry="0.35654262" /><ellipse
       style="fill:#ffffff;fill-opacity:1;stroke:#ffffff;stroke-width:0"
       id="path2"
       cx="100.61188"
       cy="162.71713"
       rx="0.35699999"
       ry="0.35654262" /></g><g
     id="layer4"><path
       fill-rule="evenodd"
       fill="#fffffe"
       fill-opacity="1"
       d="m 111.659,101.8171 c -0.14445,0 -0.27892,-0.0846 -0.33889,-0.22424 -0.2441,-0.56801 -0.28887,-1.20083 -0.13442,-1.778957 0.17947,-0.702496 0.62288,-1.285685 1.24092,-1.649297 0.63282,-0.368885 1.37036,-0.463481 2.08785,-0.269218 0.19426,0.05489 0.31399,0.254218 0.25909,0.453552 -0.0548,0.194262 -0.25402,0.308915 -0.44847,0.259089 -0.52324,-0.144453 -1.06146,-0.07477 -1.51986,0.194262 -0.4485,0.264145 -0.77241,0.687712 -0.90184,1.201019 v 0.005 c -0.11465,0.41852 -0.0799,0.88198 0.0995,1.30049 0.0795,0.18434 -0.005,0.40371 -0.19446,0.48333 -0.0548,0.0154 -0.0995,0.025 -0.14954,0.025"
       id="path473-5"
       style="stroke-width:0.0498315" /><path
       fill-rule="evenodd"
       fill="#fffffe"
       fill-opacity="1"
       d="m 113.0393,108.99789 c -0.14446,0 -0.28401,-0.0846 -0.3387,-0.2293 -0.35388,-0.86192 -0.42357,-1.81885 -0.19932,-2.69577 v -0.005 c 0.29393,-1.06145 0.97658,-1.94829 1.92844,-2.49644 0.95166,-0.54328 2.05808,-0.69277 3.1244,-0.40878 0.19427,0.0549 0.31398,0.25423 0.26416,0.44849 -0.0549,0.19446 -0.25424,0.31397 -0.4485,0.26414 -1.79394,-0.4734 -3.65775,0.59798 -4.151,2.38705 -0.18435,0.72255 -0.12457,1.51481 0.16934,2.22744 0.0799,0.18938 -0.01,0.4035 -0.19933,0.48332 -0.0548,0.0154 -0.10453,0.025 -0.14954,0.025"
       id="path474-5"
       style="stroke-width:0.0498315" /><path
       fill-rule="evenodd"
       fill="#fffffe"
       fill-opacity="1"
       d="m 111.54435,111.50447 c -1.05133,0 -2.11278,-0.36887 -2.98483,-1.0416 -0.15942,-0.12456 -0.1894,-0.35368 -0.0648,-0.51311 0.12457,-0.15962 0.35389,-0.1894 0.5133,-0.0649 0.74241,0.57306 1.64445,0.89191 2.53636,0.89191 2.24747,0 4.0714,-1.81885 4.0714,-4.05136 0,-0.20417 0.16428,-0.36867 0.36866,-0.36867 0.2044,0 0.36867,0.1645 0.36867,0.36867 0,1.28084 -0.4983,2.48167 -1.40521,3.38369 -0.90689,0.89696 -2.11783,1.39528 -3.40352,1.39528"
       id="path475-1"
       style="stroke-width:0.0498315" /><path
       fill-rule="evenodd"
       fill="#fffffe"
       fill-opacity="1"
       d="m 114.16558,113.85142 c -0.72257,0 -1.40036,-0.284 -1.91851,-0.7973 -0.51332,-0.5131 -0.79731,-1.19597 -0.79731,-1.91852 0,-0.20419 0.16447,-0.36868 0.36866,-0.36868 0.20439,0 0.36889,0.16449 0.36889,0.36868 0,1.09143 0.88703,1.97847 1.97827,1.97847 0.4584,0 0.88703,-0.15456 1.23585,-0.44362 0.15437,-0.12951 0.38873,-0.10965 0.51817,0.045 0.12965,0.15436 0.10965,0.38852 -0.0448,0.51816 -0.48332,0.40373 -1.07136,0.61785 -1.70924,0.61785"
       id="path476-7"
       style="stroke-width:0.0498315" /><path
       fill-rule="evenodd"
       fill="#fffffe"
       fill-opacity="1"
       d="m 119.01422,116.49754 c -0.005,0 -0.01,0 -0.02,0 -0.72257,-0.005 -1.39022,-0.28905 -1.88854,-0.79731 -0.42862,-0.40856 -0.71263,-0.97171 -0.79731,-1.59459 -0.0299,-0.2044 0.11465,-0.38873 0.31399,-0.41364 0.19932,-0.0298 0.38873,0.11465 0.41363,0.31397 0.0598,0.45841 0.26902,0.87205 0.57794,1.16112 0.005,0.005 0.005,0.005 0.01,0.01 0.35895,0.36866 0.84714,0.57305 1.37038,0.57811 0.005,0 0.011,0 0.0154,0 0.52829,0 1.02661,-0.20945 1.40521,-0.58319 0.14461,-0.14445 0.37879,-0.14445 0.51836,0 0.14445,0.14461 0.14445,0.37879 0,0.51838 -0.50824,0.52321 -1.19109,0.80722 -1.91852,0.80722"
       id="path477-1"
       style="stroke-width:0.0498315" /><path
       fill-rule="evenodd"
       fill="#fffffe"
       fill-opacity="1"
       d="m 115.61576,119.90108 c -0.18941,0 -0.34884,-0.14461 -0.36382,-0.33383 -0.0598,-0.67778 -0.37374,-1.33065 -0.88198,-1.84376 -0.58805,-0.59798 -1.37036,-0.92696 -2.19765,-0.92696 -0.83216,0 -1.61446,0.32898 -2.19765,0.92696 -0.14445,0.14445 -0.37374,0.14954 -0.51818,0.005 -0.14445,-0.14445 -0.14954,-0.37372 -0.005,-0.51815 0.72763,-0.73756 1.69427,-1.14612 2.72595,-1.14612 1.03147,0 1.99813,0.40856 2.72574,1.14104 0.63283,0.63283 1.02155,1.44512 1.0963,2.29733 0.0199,0.20419 -0.12966,0.38365 -0.33384,0.39865 -0.0299,0 -0.0399,0 -0.0498,0"
       id="path478-1"
       style="stroke-width:0.0498315" /><path
       fill-rule="evenodd"
       fill="#fffffe"
       fill-opacity="1"
       d="m 112.04773,127.74957 c -0.12457,0 -0.24916,-0.0648 -0.31884,-0.17948 -0.51837,-0.88706 -0.65794,-1.92339 -0.38874,-2.92001 0.26416,-0.99664 0.90184,-1.82899 1.78403,-2.34209 0,0 0,0 0.005,0 0.78738,-0.44848 1.65437,-0.60305 2.5015,-0.45355 0.19934,0.0349 0.33404,0.22424 0.299,0.42357 -0.0349,0.19933 -0.22424,0.33384 -0.42358,0.29899 -0.67271,-0.1194 -1.37036,0.01 -2.00803,0.36867 -1.48502,0.87205 -1.99327,2.78064 -1.13134,4.2606 0.10465,0.17441 0.045,0.39865 -0.13444,0.50337 -0.0548,0.0199 -0.11941,0.0399 -0.18433,0.0399"
       id="path479-5"
       style="stroke-width:0.0498315" /><path
       fill-rule="evenodd"
       fill="#fffffe"
       fill-opacity="1"
       d="m 110.41829,95.37403 c -2.0431,0 -3.70254,1.65924 -3.70254,3.702335 v 26.460545 c 0,2.0431 1.65944,3.70253 3.70254,3.70253 1.80386,0 3.34356,-1.27557 3.66747,-3.03467 0.02,-0.10965 0.0898,-0.20438 0.18454,-0.25422 0.0946,-0.0548 0.20924,-0.0598 0.31377,-0.0199 0.45355,0.17927 0.91703,0.27407 1.3805,0.27407 2.04309,0 3.70233,-1.67441 3.70233,-3.72743 0,-0.37375 -0.0598,-0.75739 -0.16935,-1.14106 -0.0448,-0.14955 0.01,-0.30913 0.13444,-0.40371 0.95671,-0.69259 1.52978,-1.8138 1.52978,-2.99498 0,-0.82221 -0.27407,-1.62944 -0.77726,-2.28213 -0.10965,-0.13951 -0.0995,-0.33888 0.0199,-0.47339 0.6079,-0.67273 0.94194,-1.53991 0.94194,-2.4468 0,-1.32054 -0.70775,-2.54647 -1.8389,-3.19914 -0.16449,-0.0948 -0.22912,-0.30406 -0.14953,-0.47846 0.2692,-0.55303 0.39863,-1.12609 0.39863,-1.70421 0,-1.58468 -0.95166,-2.95504 -2.42675,-3.49814 -0.17948,-0.0649 -0.27914,-0.25909 -0.2293,-0.44362 0.0998,-0.35874 0.19447,-0.7574 0.19447,-1.1909 0,-1.73417 -1.24094,-3.254031 -2.95,-3.617843 -0.14461,-0.02975 -0.25423,-0.144453 -0.2842,-0.284003 -0.3636,-1.729108 -1.86362,-2.944926 -3.64256,-2.944926 z m 0,34.60296 c -1.1911,0 -2.30724,-0.45841 -3.14446,-1.29563 -0.83721,-0.83721 -1.29562,-1.95336 -1.29562,-3.14445 V 99.076365 c 0,-1.190904 0.45841,-2.307055 1.29562,-3.144261 0.83722,-0.837205 1.95336,-1.295613 3.14446,-1.295613 1.03147,0 2.03802,0.358741 2.83046,1.006555 0.72256,0.592916 1.24072,1.400338 1.47995,2.302184 0.89191,0.239217 1.69915,0.757394 2.28719,1.475092 0.65774,0.792238 1.01669,1.788868 1.01669,2.810418 0,0.38872 -0.06,0.7426 -0.13952,1.07138 0.71749,0.3239 1.32539,0.83215 1.784,1.47509 0.53317,0.75234 0.81211,1.6493 0.81211,2.58132 0,0.58298 -0.1144,1.16091 -0.3387,1.71917 1.19596,0.81717 1.92844,2.19259 1.92844,3.66263 0,0.98651 -0.32896,1.93836 -0.93686,2.71077 0.48837,0.73248 0.75253,1.60452 0.75253,2.49157 0,0.71263 -0.17442,1.42019 -0.50337,2.04814 -0.27408,0.5281 -0.6628,1.0015 -1.12629,1.38031 0.0898,0.36867 0.13474,0.73755 0.13474,1.10115 0,1.18603 -0.46348,2.30725 -1.30576,3.15439 -0.84206,0.84225 -1.95335,1.31059 -3.13431,1.31059 -0.41852,0 -0.84208,-0.0598 -1.25572,-0.18433 -0.23923,0.84207 -0.73756,1.59947 -1.42019,2.1776 -0.80238,0.67779 -1.81886,1.04647 -2.86532,1.04647"
       id="path480-2"
       style="stroke-width:0.0498315" /><path
       fill-rule="evenodd"
       fill="#fffffe"
       fill-opacity="1"
       d="m 102.27082,129.97699 c -1.04647,0 -2.06801,-0.37374 -2.870374,-1.04647 -0.682655,-0.57305 -1.175904,-1.33553 -1.420193,-2.1776 -0.413638,0.12457 -0.83215,0.18433 -1.255718,0.18433 -1.176103,0 -2.292251,-0.46346 -3.134327,-1.31059 -0.84227,-0.84714 -1.305742,-1.96329 -1.305742,-3.15439 0,-0.3636 0.04497,-0.73248 0.134694,-1.10115 -0.463473,-0.37881 -0.847137,-0.85221 -1.126272,-1.38031 -0.328966,-0.62795 -0.503376,-1.33551 -0.503376,-2.04814 0,-0.88198 0.269207,-1.75404 0.752533,-2.49157 -0.607906,-0.77241 -0.936871,-1.72426 -0.936871,-2.71077 0,-1.47004 0.732485,-2.84546 1.928441,-3.66263 -0.224241,-0.56313 -0.338698,-1.14125 -0.338698,-1.71917 0,-0.93202 0.284001,-1.82898 0.812099,-2.58132 0.458605,-0.64782 1.071378,-1.15119 1.784007,-1.47509 -0.07961,-0.32878 -0.139564,-0.6776 -0.139564,-1.07138 0,-1.02155 0.358942,-2.01818 1.01668,-2.810418 0.592918,-0.717698 1.400154,-1.230803 2.287186,-1.475092 0.239232,-0.901846 0.757409,-1.709268 1.479962,-2.302184 0.792433,-0.647814 1.798993,-1.006555 2.830473,-1.006555 1.19109,0 2.30724,0.458408 3.14444,1.295613 0.83721,0.837206 1.29562,1.953357 1.29562,3.144261 0,0.204376 -0.16447,0.368869 -0.36887,0.368869 -0.20419,0 -0.36867,-0.164493 -0.36867,-0.368869 0,-2.043095 -1.65942,-3.702335 -3.70252,-3.702335 -1.77895,0 -3.278953,1.215817 -3.642565,2.949998 -0.02991,0.144452 -0.139518,0.254017 -0.284202,0.284001 -1.714127,0.35874 -2.954855,1.883661 -2.954855,3.617841 0,0.4335 0.08954,0.82708 0.194265,1.1909 0.04982,0.18433 -0.04982,0.3788 -0.229302,0.44342 -1.474898,0.54328 -2.426758,1.91365 -2.426758,3.49834 0,0.57792 0.134509,1.15098 0.398652,1.70419 0.08467,0.17441 0.02004,0.38367 -0.149493,0.47826 -1.136198,0.65795 -1.838707,1.88368 -1.838707,3.19935 0,0.9069 0.333832,1.77389 0.941739,2.4466 0.119714,0.12966 0.124581,0.32897 0.02005,0.47341 -0.498316,0.65287 -0.777451,1.46517 -0.777451,2.28233 0,1.1761 0.568002,2.29731 1.529791,2.99495 0.124581,0.0895 0.179471,0.25402 0.134509,0.40351 -0.114457,0.38367 -0.16935,0.76247 -0.16935,1.14126 0,2.05303 1.659429,3.72725 3.702522,3.72725 0.463477,0 0.931813,-0.0895 1.380292,-0.27407 0.104676,-0.0398 0.219177,-0.0349 0.313972,0.02 0.09466,0.0548 0.164478,0.14954 0.184335,0.25403 0.323899,1.7591 1.863616,3.03487 3.667686,3.03487 2.04309,0 3.70232,-1.65944 3.70232,-3.70253 0,-0.20439 0.1645,-0.36867 0.36888,-0.36867 0.2042,0 0.36867,0.16428 0.36867,0.36867 0,1.1909 -0.4584,2.30724 -1.2956,3.14446 -0.8271,0.83214 -1.94345,1.29055 -3.13434,1.29055"
       id="path481-7"
       style="stroke-width:0.0498315" /><path
       fill-rule="evenodd"
       fill="#fffffe"
       fill-opacity="1"
       d="m 101.02989,101.8171 c -0.0498,0 -0.0947,-0.01 -0.14445,-0.0298 -0.18434,-0.0799 -0.27408,-0.29899 -0.19427,-0.48332 0.17926,-0.41872 0.21412,-0.87712 0.0996,-1.30069 v -0.0046 c -0.12965,-0.513106 -0.44848,-0.931801 -0.902031,-1.200818 -0.458407,-0.269201 -1.001684,-0.333828 -1.519861,-0.194463 -0.194247,0.05489 -0.398638,-0.05981 -0.448464,-0.259088 -0.05489,-0.194264 0.05981,-0.398639 0.259073,-0.448481 0.712625,-0.194262 1.455035,-0.09975 2.088063,0.269218 0.62289,0.363613 1.06125,0.946801 1.24072,1.649298 0.15942,0.578134 0.10961,1.210954 -0.13443,1.778954 -0.0648,0.13952 -0.2044,0.22424 -0.34398,0.22424"
       id="path482-6"
       style="stroke-width:0.0498315" /><path
       fill-rule="evenodd"
       fill="#fffffe"
       fill-opacity="1"
       d="m 99.649607,108.99789 c -0.0447,0 -0.09466,-0.01 -0.139519,-0.0299 -0.189191,-0.0795 -0.27893,-0.29392 -0.19932,-0.48332 0.294131,-0.71264 0.353886,-1.50487 0.16955,-2.22745 -0.493448,-1.78885 -2.357065,-2.86024 -4.151005,-2.38197 -0.194266,0.0549 -0.398652,-0.0648 -0.448484,-0.26415 -0.0549,-0.19427 0.06483,-0.39865 0.264147,-0.44849 1.061451,-0.27893 2.17254,-0.13444 3.124396,0.40877 0.951858,0.5431 1.634513,1.43013 1.928448,2.49158 v 0.005 c 0.22423,0.87712 0.15454,1.83385 -0.199339,2.69597 -0.06475,0.14954 -0.204191,0.23417 -0.348813,0.23417"
       id="path483-1"
       style="stroke-width:0.0498315" /><path
       fill-rule="evenodd"
       fill="#fffffe"
       fill-opacity="1"
       d="m 101.14454,111.50447 c -1.290558,0 -2.496431,-0.49832 -3.40352,-1.40035 -0.906887,-0.90184 -1.40521,-2.10285 -1.40521,-3.38348 0,-0.20439 0.164482,-0.36887 0.368871,-0.36887 0.204191,0 0.368669,0.16448 0.368669,0.36887 0,2.23249 1.828776,4.05135 4.07119,4.05135 0.89212,0 1.79394,-0.31399 2.53656,-0.8921 0.15942,-0.12457 0.38853,-0.0947 0.51311,0.0648 0.12455,0.15943 0.0948,0.38874 -0.0647,0.51332 -0.87206,0.67759 -1.9335,1.04647 -2.98504,1.04647"
       id="path484-4"
       style="stroke-width:0.0498315" /><path
       fill-rule="evenodd"
       fill="#fffffe"
       fill-opacity="1"
       d="m 98.523528,113.85142 c -0.633015,0 -1.22593,-0.20926 -1.709252,-0.61277 -0.154561,-0.12965 -0.179477,-0.36381 -0.04497,-0.51837 0.129636,-0.15436 0.363801,-0.17926 0.518367,-0.0448 0.348812,0.28908 0.77725,0.44343 1.235859,0.44343 1.091221,0 1.978268,-0.88703 1.978268,-1.97827 0,-0.2044 0.16449,-0.36867 0.36867,-0.36867 0.20439,0 0.36888,0.16427 0.36888,0.36867 0,0.72256 -0.2842,1.40036 -0.7973,1.91851 -0.518366,0.50825 -1.195965,0.79225 -1.918518,0.79225"
       id="path485-2"
       style="stroke-width:0.0498315" /><path
       fill-rule="evenodd"
       fill="#fffffe"
       fill-opacity="1"
       d="m 93.674882,116.49754 c -0.727617,0 -1.410271,-0.28399 -1.923576,-0.79731 -0.144436,-0.14445 -0.144436,-0.37879 0,-0.51815 0.144622,-0.14461 0.378798,-0.14461 0.518366,0 0.378603,0.3786 0.88198,0.58786 1.415139,0.58298 0.523231,0 1.011619,-0.20924 1.370368,-0.57813 0.0051,-0.005 0.0051,-0.005 0.0099,-0.01 0.308919,-0.29394 0.513305,-0.70272 0.578125,-1.16113 0.02979,-0.20419 0.214314,-0.34376 0.413639,-0.31399 0.204195,0.0301 0.343761,0.21432 0.313785,0.41366 -0.08467,0.62289 -0.368676,1.18601 -0.797305,1.5946 -0.498315,0.50825 -1.171041,0.79246 -1.888538,0.79731 0,-0.01 -0.0051,-0.01 -0.0099,-0.01"
       id="path486-3"
       style="stroke-width:0.0498315" /><path
       fill-rule="evenodd"
       fill="#fffffe"
       fill-opacity="1"
       d="m 97.07335,119.90108 c -0.0093,0 -0.01989,0 -0.02991,0 -0.204191,-0.02 -0.353683,-0.19446 -0.333827,-0.39865 0.07476,-0.85219 0.463479,-1.66448 1.096294,-2.29731 0.727609,-0.73755 1.694251,-1.14107 2.725733,-1.14107 1.03167,0 1.99833,0.40859 2.72594,1.14614 0.14445,0.14445 0.13937,0.3786 -0.005,0.51816 -0.14445,0.13952 -0.3788,0.13952 -0.51816,-0.005 -0.58806,-0.59797 -1.37037,-0.92694 -2.19766,-0.92694 -0.832153,0 -1.61446,0.32897 -2.197649,0.92694 -0.508234,0.50825 -0.822205,1.16598 -0.881975,1.84378 -0.03485,0.18919 -0.194262,0.33382 -0.383653,0.33382"
       id="path487-2"
       style="stroke-width:0.0498315" /><path
       fill-rule="evenodd"
       fill="#fffffe"
       fill-opacity="1"
       d="m 100.63631,127.74957 c -0.0598,0 -0.12457,-0.0154 -0.18434,-0.0498 -0.1744,-0.10465 -0.23418,-0.32896 -0.13443,-0.50337 0.86193,-1.47995 0.35874,-3.38855 -1.131336,-4.2606 -0.637685,-0.36381 -1.330455,-0.4884 -2.008053,-0.36867 -0.199319,0.0349 -0.393783,-0.0998 -0.423562,-0.29899 -0.03504,-0.19933 0.09966,-0.38873 0.298981,-0.42357 0.847149,-0.14955 1.709067,0.01 2.501503,0.45335 0,0 0,0 0.0046,0 0.887037,0.51837 1.519857,1.3505 1.783997,2.34208 0.26922,0.99664 0.12966,2.03316 -0.38872,2.92021 -0.0697,0.12456 -0.18919,0.1894 -0.31884,0.1894"
       id="path488-2"
       style="stroke-width:0.0498315" /><path
       fill-rule="evenodd"
       fill="#fffffe"
       fill-opacity="1"
       d="m 107.7922,108.4447 c -0.2044,0 -0.36888,-0.16429 -0.36888,-0.36868 v -8.720524 c 0,-0.204393 0.16448,-0.36867 0.36888,-0.36867 0.20419,0 0.36867,0.164277 0.36867,0.36867 v 8.720524 c 0,0.20439 -0.16448,0.36868 -0.36867,0.36868"
       id="path489-1"
       style="stroke-width:0.0498315" /><path
       fill-rule="evenodd"
       fill="#fffffe"
       fill-opacity="1"
       d="m 104.8969,125.63171 c -0.20439,0 -0.36866,-0.16448 -0.36866,-0.36887 v -8.72052 c 0,-0.20419 0.16427,-0.36867 0.36866,-0.36867 0.20439,0 0.36867,0.16448 0.36867,0.36867 v 8.72052 c -0.005,0.20439 -0.16933,0.36887 -0.36867,0.36887"
       id="path490-6"
       style="stroke-width:0.0498315" /></g></svg>
